<svg xmlns="http://www.w3.org/2000/svg" version="1.1" xmlns:xlink="http://www.w3.org/1999/xlink" xmlns:svgjs="http://svgjs.dev/svgjs" width="1000" height="148" viewBox="0 0 1000 148"><g transform="matrix(1,0,0,1,-0.6060606060606233,0.6090799138716818)"><svg viewBox="0 0 396 59" data-background-color="#ffffff" preserveAspectRatio="xMidYMid meet" height="148" width="1000" xmlns="http://www.w3.org/2000/svg" xmlns:xlink="http://www.w3.org/1999/xlink"><g id="tight-bounds" transform="matrix(1,0,0,1,0.2400000000000091,-0.24280888458397953)"><svg viewBox="0 0 395.52 59.48561776916795" height="59.48561776916795" width="395.52"><g><svg viewBox="0 0 471.0509878744049 70.84536563128493" height="59.48561776916795" width="395.52"><g transform="matrix(1,0,0,1,0,9.791219128491626)"><svg viewBox="0 0 395.52 51.26292737430168" height="51.26292737430168" width="395.52"><g><svg viewBox="0 0 395.52 51.26292737430168" height="51.26292737430168" width="395.52"><g><svg viewBox="0 0 395.52 51.26292737430168" height="51.26292737430168" width="395.52"><g transform="matrix(1,0,0,1,0,0)"><svg width="395.52" viewBox="1.149999976158142 -33.95000076293945 268.4800109863281 34.79999923706055" height="51.26292737430168" data-palette-color="#d2d6dc"><g class="undefined-text-0" data-fill-palette-color="primary" id="text-0"><path d="M13.7 0L1.15 0 1.15-1.05 1.95-1.3Q3-1.7 3.38-2.35 3.75-3 3.75-4.1L3.75-4.1Q3.8-6.95 3.8-9.83 3.8-12.7 3.8-15.6L3.8-15.6 3.8-17.4Q3.8-20.3 3.78-23.18 3.75-26.05 3.75-28.95L3.75-28.95Q3.75-30.15 3.4-30.78 3.05-31.4 1.95-31.75L1.95-31.75 1.15-32 1.15-33.05 15.25-33.05Q21.25-33.05 23.95-30.83 26.65-28.6 26.65-25.2L26.65-25.2Q26.65-22.6 24.75-20.53 22.85-18.45 18.1-17.55L18.1-17.55Q23.6-16.95 26.05-14.7 28.5-12.45 28.5-9.2L28.5-9.2Q28.5-7.6 27.8-5.98 27.1-4.35 25.43-3 23.75-1.65 20.9-0.83 18.05 0 13.7 0L13.7 0ZM10.9-31.6L10.9-17.9 13.25-17.9Q16.65-17.9 18.18-19.43 19.7-20.95 19.7-24.65L19.7-24.65Q19.7-28.5 18.3-30.05 16.9-31.6 13.9-31.6L13.9-31.6 10.9-31.6ZM10.9-16.45L10.9-1.45 13.65-1.45Q17.4-1.45 19.25-3.3 21.1-5.15 21.1-9.25L21.1-9.25Q21.1-13.2 19.33-14.83 17.55-16.45 13.5-16.45L13.5-16.45 10.9-16.45ZM46.45 0.85L46.45 0.85Q43.4 0.85 40.6-0.25 37.8-1.35 35.57-3.53 33.35-5.7 32.05-8.95 30.75-12.2 30.75-16.55L30.75-16.55Q30.75-20.8 32.05-24.05 33.35-27.3 35.57-29.5 37.8-31.7 40.62-32.83 43.45-33.95 46.45-33.95L46.45-33.95Q49.45-33.95 52.27-32.85 55.1-31.75 57.3-29.58 59.5-27.4 60.8-24.15 62.1-20.9 62.1-16.55L62.1-16.55Q62.1-12.3 60.8-9.05 59.5-5.8 57.3-3.6 55.1-1.4 52.3-0.28 49.5 0.85 46.45 0.85ZM46.45-0.65L46.45-0.65Q49.3-0.65 51.05-2.13 52.8-3.6 53.6-7.1 54.4-10.6 54.4-16.55L54.4-16.55Q54.4-22.5 53.6-25.98 52.8-29.45 51.05-30.93 49.3-32.4 46.45-32.4L46.45-32.4Q43.65-32.4 41.87-30.93 40.1-29.45 39.3-25.98 38.5-22.5 38.5-16.55L38.5-16.55Q38.5-10.6 39.3-7.1 40.1-3.6 41.87-2.13 43.65-0.65 46.45-0.65ZM79.9 0.85L79.9 0.85Q76.85 0.85 74.05-0.25 71.25-1.35 69.02-3.53 66.8-5.7 65.5-8.95 64.2-12.2 64.2-16.55L64.2-16.55Q64.2-20.8 65.5-24.05 66.8-27.3 69.02-29.5 71.25-31.7 74.07-32.83 76.9-33.95 79.9-33.95L79.9-33.95Q82.9-33.95 85.72-32.85 88.55-31.75 90.75-29.58 92.95-27.4 94.25-24.15 95.55-20.9 95.55-16.55L95.55-16.55Q95.55-12.3 94.25-9.05 92.95-5.8 90.75-3.6 88.55-1.4 85.75-0.28 82.95 0.85 79.9 0.85ZM79.9-0.65L79.9-0.65Q82.75-0.65 84.5-2.13 86.25-3.6 87.05-7.1 87.85-10.6 87.85-16.55L87.85-16.55Q87.85-22.5 87.05-25.98 86.25-29.45 84.5-30.93 82.75-32.4 79.9-32.4L79.9-32.4Q77.1-32.4 75.32-30.93 73.55-29.45 72.75-25.98 71.95-22.5 71.95-16.55L71.95-16.55Q71.95-10.6 72.75-7.1 73.55-3.6 75.32-2.13 77.1-0.65 79.9-0.65ZM109.89 0L97.74 0 97.74-1.05 98.79-1.35Q99.79-1.65 100.09-2.25 100.39-2.85 100.39-3.85L100.39-3.85 100.39-29.15Q100.39-30.2 100.07-30.78 99.74-31.35 98.74-31.65L98.74-31.65 97.74-32 97.74-33.05 109.89-33.05 109.89-32 108.84-31.65Q107.89-31.4 107.59-30.8 107.29-30.2 107.29-29.15L107.29-29.15 107.29-3.8Q107.29-2.8 107.64-2.23 107.99-1.65 108.94-1.35L108.94-1.35 109.89-1.05 109.89 0ZM128.49 0L115.94 0 115.94-1.05 116.54-1.2Q117.49-1.45 117.54-2.15 117.59-2.85 116.89-3.75L116.89-3.75 107.34-17 119.54-29.4Q120.29-30.15 120.37-30.78 120.44-31.4 119.44-31.75L119.44-31.75 118.59-32 118.59-33.05 126.49-33.05 126.49-32 125.19-31.65Q124.04-31.3 123.34-30.83 122.64-30.35 121.74-29.4L121.74-29.4 112.84-20.35 124.29-4Q125.09-2.9 125.82-2.25 126.54-1.6 127.79-1.25L127.79-1.25 128.49-1.05 128.49 0ZM140.79 0.85L140.79 0.85Q138.04 0.85 135.22 0.18 132.39-0.5 130.49-1.6L130.49-1.6 130.79-8.55 132.24-8.55 133.79-5.1Q134.49-3.65 135.24-2.7 135.99-1.75 137.24-1.25L137.24-1.25Q138.09-0.9 138.87-0.78 139.64-0.65 140.59-0.65L140.59-0.65Q143.64-0.65 145.42-2.23 147.19-3.8 147.19-6.4L147.19-6.4Q147.19-8.75 145.97-10.1 144.74-11.45 142.04-12.7L142.04-12.7 139.99-13.6Q135.79-15.45 133.37-17.9 130.94-20.35 130.94-24.4L130.94-24.4Q130.94-27.4 132.47-29.53 133.99-31.65 136.69-32.8 139.39-33.95 142.99-33.95L142.99-33.95Q145.64-33.95 147.97-33.25 150.29-32.55 152.04-31.35L152.04-31.35 151.69-25.15 150.24-25.15 148.39-28.9Q147.59-30.55 146.87-31.28 146.14-32 145.09-32.2L145.09-32.2Q144.49-32.3 144.06-32.35 143.64-32.4 142.94-32.4L142.94-32.4Q140.49-32.4 138.72-30.98 136.94-29.55 136.94-27.05L136.94-27.05Q136.94-24.65 138.29-23.15 139.64-21.65 142.19-20.5L142.19-20.5 144.44-19.55Q149.29-17.45 151.39-15.08 153.49-12.7 153.49-9L153.49-9Q153.49-4.6 150.17-1.88 146.84 0.85 140.79 0.85ZM168.44 0L156.09 0 156.09-1.05 157.04-1.35Q158.04-1.7 158.39-2.27 158.74-2.85 158.74-3.85L158.74-3.85 158.74-29.15Q158.74-30.15 158.41-30.75 158.09-31.35 157.09-31.7L157.09-31.7 156.09-32 156.09-33.05 168.44-33.05 168.44-32 167.59-31.75Q166.64-31.4 166.29-30.83 165.94-30.25 165.94-29.25L165.94-29.25 165.94-17.75 178.39-17.75 178.39-29.25Q178.39-30.25 178.04-30.83 177.69-31.4 176.69-31.75L176.69-31.75 175.89-32 175.89-33.05 188.24-33.05 188.24-32 187.29-31.7Q186.34-31.35 185.96-30.78 185.59-30.2 185.59-29.2L185.59-29.2 185.59-3.85Q185.59-2.85 185.96-2.27 186.34-1.7 187.29-1.35L187.29-1.35 188.24-1.05 188.24 0 175.89 0 175.89-1.05 176.69-1.3Q177.69-1.65 178.04-2.23 178.39-2.8 178.39-3.8L178.39-3.8 178.39-16.25 165.94-16.25 165.94-3.8Q165.94-2.8 166.31-2.23 166.69-1.65 167.64-1.3L167.64-1.3 168.44-1.05 168.44 0ZM215.33 0L190.53 0 190.53-1.05 191.53-1.4Q192.44-1.65 192.78-2.27 193.13-2.9 193.19-4L193.19-4 193.19-29.15Q193.13-30.2 192.83-30.78 192.53-31.35 191.58-31.65L191.58-31.65 190.53-32 190.53-33.05 214.33-33.05 214.69-25.05 213.28-25.05 211.28-29.55Q210.88-30.5 210.38-31.03 209.88-31.55 208.88-31.55L208.88-31.55 200.38-31.55Q200.33-28.45 200.33-25.18 200.33-21.9 200.33-17.8L200.33-17.8 205.28-17.8Q206.28-17.8 206.81-18.32 207.33-18.85 207.78-19.75L207.78-19.75 208.63-21.65 209.73-21.65 209.73-12.4 208.63-12.4 207.73-14.3Q207.33-15.2 206.83-15.75 206.33-16.3 205.33-16.3L205.33-16.3 200.33-16.3Q200.33-12.7 200.33-10.1 200.33-7.5 200.36-5.48 200.38-3.45 200.38-1.5L200.38-1.5 209.98-1.5Q210.98-1.5 211.53-2.02 212.08-2.55 212.44-3.5L212.44-3.5 214.28-8 215.69-8 215.33 0ZM242.33 0L218.23 0 218.23-1.05 219.23-1.35Q220.28-1.7 220.58-2.27 220.88-2.85 220.88-3.9L220.88-3.9 220.88-29.2Q220.88-30.2 220.58-30.78 220.28-31.35 219.28-31.7L219.28-31.7 218.23-32 218.23-33.05 230.63-33.05 230.63-32 229.68-31.7Q228.73-31.35 228.41-30.75 228.08-30.15 228.08-29.1L228.08-29.1 228.08-1.5 235.43-1.5Q237.13-1.5 237.98-2.35 238.83-3.2 239.58-4.8L239.58-4.8 241.43-8.95 242.83-8.95 242.33 0ZM258.43 0L245.23 0 245.23-1.05 246.18-1.3Q247.18-1.6 247.48-2.2 247.78-2.8 247.83-3.85L247.83-3.85Q247.88-6.7 247.88-9.63 247.88-12.55 247.88-15.5L247.88-15.5 247.88-17.55Q247.88-20.45 247.88-23.35 247.88-26.25 247.83-29.15L247.83-29.15Q247.78-30.2 247.53-30.78 247.28-31.35 246.33-31.65L246.33-31.65 245.23-32 245.23-33.05 269.28-33.05 269.63-24.6 268.28-24.6 265.68-29.55Q265.18-30.5 264.58-31.03 263.98-31.55 262.83-31.55L262.83-31.55 255.13-31.55Q255.08-28.2 255.05-24.68 255.03-21.15 255.03-17.65L255.03-17.65 259.83-17.65Q260.98-17.65 261.53-18.18 262.08-18.7 262.58-19.65L262.58-19.65 263.58-21.5 264.68-21.5 264.68-12.35 263.58-12.35 262.58-14.15Q262.03-15.15 261.5-15.68 260.98-16.2 259.83-16.2L259.83-16.2 255.03-16.2Q255.03-12.9 255.03-9.88 255.03-6.85 255.08-3.95L255.08-3.95Q255.08-1.9 256.93-1.4L256.93-1.4 258.43-1.05 258.43 0Z" fill="#d2d6dc" data-fill-palette-color="primary"></path></g></svg></g></svg></g></svg></g></svg></g><g transform="matrix(1,0,0,1,407.62194684281565,0)"><svg viewBox="0 0 63.42904103158922 70.84536563128493" height="70.84536563128493" width="63.42904103158922"><g><svg xmlns="http://www.w3.org/2000/svg" xmlns:xlink="http://www.w3.org/1999/xlink" version="1.1" x="0" y="0" viewBox="-352.5 262 65 72.60000610351562" style="enable-background:new -370 248.3 100 100;" xml:space="preserve" height="70.84536563128493" width="63.42904103158922" class="icon-icon-0" data-fill-palette-color="accent" id="icon-0"><path d="M-352.5 262v72.6h4v-3.3h57v3.3h4V262H-352.5zM-291.5 327.3h-57v-19.5h57V327.3zM-291.5 305.8h-57v-19.4h57V305.8zM-291.5 284.4h-57V266h57V284.4zM-338.6 267.8h-8.2v15.3h8.2V267.8zM-340.6 281.2h-4.2v-11.3h4.2V281.2zM-328.9 267.8h-8.2v15.3h8.2V267.8zM-330.9 281.2h-4.2v-11.3h4.2V281.2zM-319.3 267.8h-8.2v15.3h8.2V267.8zM-321.3 281.2h-4.2v-11.3h4.2V281.2zM-299.1 268.9h-3.8V283h3.8V268.9zM-293.6 268.9h-3.8V283h3.8V268.9zM-326.2 300.5h-20.3v3.9h20.3V300.5zM-293.6 322.4H-314v3.3h20.3V322.4zM-309.9 321.4h16.3v-3.3h-16.3V321.4zM-293.6 313.7H-312v3.3h18.4V313.7zM-330 295.2h-16.6v3.9h16.6V295.2zM-293.5 290.1h-3.9v14.4h3.9V290.1zM-299 290.1h-3.9v14.4h3.9V290.1zM-304.5 290.1h-3.9v14.4h3.9V290.1zM-310 290.1h-3.9v14.4h3.9V290.1zM-331.7 311.4h-3.9v14.4h3.9V311.4zM-321 324.4l-5.8-13.1-3.6 1.6 5.8 13.1L-321 324.4zM-337.2 311.4h-3.9v14.4h3.9V311.4zM-342.7 311.4h-3.9v14.4h3.9V311.4zM-303.9 270.4l-4.1-1.5-4.8 13 4.1 1.5L-303.9 270.4z" fill="#d2d6dc" data-fill-palette-color="accent"></path></svg></g></svg></g></svg></g><defs></defs></svg><rect width="395.52" height="59.48561776916795" fill="none" stroke="none" visibility="hidden"></rect></g></svg></g></svg>